<svg width="338" height="338" viewBox="0 0 338 338" fill="none" xmlns="http://www.w3.org/2000/svg">
<path fill-rule="evenodd" clip-rule="evenodd" d="M13.2058 76.6847C12.462 62.4914 12.0901 55.3948 16.2683 50.7544C20.4465 46.1141 27.5432 45.7421 41.7364 44.9983L282.605 32.3749C296.798 31.6311 303.894 31.2592 308.535 35.4374C313.175 39.6156 313.547 46.7122 314.291 60.9055L324.541 256.485C324.621 258.023 324.662 258.793 324.412 259.499C324.161 260.206 323.646 260.778 322.615 261.923L293.965 293.742C292.935 294.887 292.419 295.459 291.743 295.782C291.066 296.105 290.297 296.145 288.759 296.225L55.5432 308.448C41.35 309.192 34.2533 309.564 29.6129 305.385C24.9726 301.207 24.6006 294.11 23.8568 279.917L13.2058 76.6847ZM296.764 66.8974C297.318 77.4713 289.195 86.4923 278.622 87.0464C268.048 87.6006 259.027 79.478 258.473 68.9042C257.918 58.3304 266.041 49.3093 276.615 48.7552C287.189 48.201 296.21 56.3236 296.764 66.8974ZM219.631 90.138C230.205 89.5839 238.327 80.5628 237.773 69.989C237.219 59.4152 228.198 51.2926 217.624 51.8468C207.05 52.4009 198.928 61.4219 199.482 71.9958C200.036 82.5696 209.057 90.6922 219.631 90.138ZM178.782 73.0806C179.336 83.6544 171.214 92.6754 160.64 93.2296C150.066 93.7837 141.045 85.6612 140.491 75.0873C139.937 64.5135 148.059 55.4925 158.633 54.9384C169.207 54.3842 178.228 62.5068 178.782 73.0806Z" fill="black" fill-opacity="0.25"/>
<path fill-rule="evenodd" clip-rule="evenodd" d="M13.0579 73.862C12.3141 59.6688 11.9421 52.5721 16.1204 47.9317C20.2986 43.2914 27.3952 42.9195 41.5885 42.1756L282.457 29.5523C296.65 28.8084 303.746 28.4365 308.387 32.6147C313.027 36.7929 313.399 43.8896 314.143 58.0828L324.393 253.662C324.474 255.201 324.514 255.97 324.264 256.677C324.013 257.383 323.498 257.956 322.467 259.1L293.817 290.919C292.787 292.064 292.271 292.636 291.595 292.959C290.918 293.282 290.149 293.322 288.611 293.403L55.3953 305.625C41.202 306.369 34.1054 306.741 29.465 302.563C24.8246 298.384 24.4527 291.288 23.7089 277.094L13.0579 73.862ZM296.616 64.0748C297.17 74.6486 289.047 83.6696 278.474 84.2237C267.9 84.7779 258.879 76.6553 258.325 66.0815C257.77 55.5077 265.893 46.4867 276.467 45.9325C287.041 45.3784 296.062 53.5009 296.616 64.0748ZM219.483 87.3153C230.057 86.7612 238.179 77.7402 237.625 67.1663C237.071 56.5925 228.05 48.4699 217.476 49.0241C206.902 49.5782 198.78 58.5993 199.334 69.1731C199.888 79.7469 208.909 87.8695 219.483 87.3153ZM178.634 70.2579C179.188 80.8317 171.066 89.8528 160.492 90.4069C149.918 90.9611 140.897 82.8385 140.343 72.2647C139.789 61.6908 147.911 52.6698 158.485 52.1157C169.059 51.5615 178.08 59.6841 178.634 70.2579Z" fill="#FCFCFC"/>
<path fill-rule="evenodd" clip-rule="evenodd" d="M290.785 293.238L290.451 286.872C289.707 272.679 289.336 265.582 293.514 260.942C297.692 256.301 304.789 255.929 318.982 255.185L324.458 254.898L324.475 255.221C324.527 256.219 324.18 257.198 323.512 257.94L292.773 292.079C292.244 292.667 291.547 293.069 290.785 293.238Z" fill="#ECECF5"/>
<path fill-rule="evenodd" clip-rule="evenodd" d="M147.155 210.521C147.193 211.252 146.804 211.94 146.158 212.284L78.9769 248.004C77.1392 248.981 74.8572 248.284 73.88 246.446L57.7943 216.193C56.8172 214.355 57.5148 212.073 59.3526 211.096L142.192 167.05C143.409 166.402 144.886 167.238 144.959 168.615L147.155 210.521Z" fill="#1D1D1F"/>
<path fill-rule="evenodd" clip-rule="evenodd" d="M96.8655 191.15L146.78 211.532L146.874 211.613C146.798 211.736 146.708 211.85 146.604 211.953L93.4062 192.989L96.8655 191.15Z" fill="black" fill-opacity="0.25"/>
<path fill-rule="evenodd" clip-rule="evenodd" d="M144.866 166.853C144.828 166.121 144.369 165.479 143.69 165.204L73.1439 136.702C71.214 135.922 69.0175 136.854 68.2378 138.784L55.4025 170.553C54.6228 172.482 55.5551 174.679 57.485 175.459L96.6312 191.275L125.375 202.888L146.893 211.582C147.078 211.271 147.173 210.908 147.155 210.532L147.155 210.521L145.036 170.097L144.866 166.853Z" fill="#1D1D1F"/>
<path d="M186.528 179.584C186.446 178.025 187.644 176.695 189.203 176.613L281.589 171.772C283.148 171.69 284.478 172.888 284.559 174.446L285.976 201.478C286.058 203.037 284.86 204.367 283.301 204.449L190.915 209.291C189.356 209.372 188.026 208.175 187.944 206.616L186.528 179.584Z" fill="#1D1D1F"/>
</svg>
