<svg width="338" height="338" viewBox="0 0 338 338" fill="none" xmlns="http://www.w3.org/2000/svg">
<path fill-rule="evenodd" clip-rule="evenodd" d="M13.2059 76.6847C12.4621 62.4914 12.0902 55.3948 16.2684 50.7544C20.4466 46.114 27.5432 45.7421 41.7365 44.9983L282.605 32.3749C296.798 31.6311 303.894 31.2591 308.535 35.4373C313.175 39.6155 313.547 46.7122 314.291 60.9055L324.541 256.485C324.622 258.023 324.662 258.793 324.412 259.499C324.161 260.206 323.646 260.778 322.615 261.923L293.965 293.742C292.935 294.887 292.419 295.459 291.743 295.782C291.066 296.104 290.297 296.145 288.759 296.225L55.5433 308.448C41.35 309.192 34.2534 309.563 29.613 305.385C24.9726 301.207 24.6007 294.11 23.8569 279.917L13.2059 76.6847ZM296.764 66.8974C297.318 77.4712 289.195 86.4922 278.622 87.0464C268.048 87.6005 259.027 79.478 258.473 68.9041C257.918 58.3303 266.041 49.3093 276.615 48.7551C287.189 48.201 296.21 56.3236 296.764 66.8974ZM219.631 90.138C230.205 89.5838 238.327 80.5628 237.773 69.989C237.219 59.4151 228.198 51.2926 217.624 51.8467C207.05 52.4009 198.928 61.4219 199.482 71.9957C200.036 82.5696 209.057 90.6921 219.631 90.138ZM178.782 73.0805C179.336 83.6544 171.214 92.6754 160.64 93.2295C150.066 93.7837 141.045 85.6611 140.491 75.0873C139.937 64.5135 148.059 55.4925 158.633 54.9383C169.207 54.3842 178.228 62.5067 178.782 73.0805Z" fill="black" fill-opacity="0.25"/>
<path fill-rule="evenodd" clip-rule="evenodd" d="M13.058 73.8619C12.3141 59.6686 11.9422 52.572 16.1204 47.9316C20.2986 43.2913 27.3953 42.9193 41.5886 42.1755L282.457 29.5521C296.65 28.8083 303.747 28.4364 308.387 32.6146C313.027 36.7928 313.399 43.8894 314.143 58.0827L324.393 253.662C324.474 255.201 324.514 255.97 324.264 256.676C324.013 257.383 323.498 257.956 322.467 259.1L293.818 290.919C292.787 292.064 292.271 292.636 291.595 292.959C290.918 293.282 290.149 293.322 288.611 293.403L55.3954 305.625C41.2021 306.369 34.1054 306.741 29.4651 302.562C24.8247 298.384 24.4528 291.288 23.7089 277.094L13.058 73.8619ZM296.616 64.0746C297.17 74.6485 289.048 83.6695 278.474 84.2236C267.9 84.7778 258.879 76.6552 258.325 66.0814C257.771 55.5076 265.893 46.4865 276.467 45.9324C287.041 45.3782 296.062 53.5008 296.616 64.0746ZM219.483 87.3152C230.057 86.7611 238.179 77.74 237.625 67.1662C237.071 56.5924 228.05 48.4698 217.476 49.024C206.902 49.5781 198.78 58.5991 199.334 69.173C199.888 79.7468 208.909 87.8694 219.483 87.3152ZM178.634 70.2578C179.188 80.8316 171.066 89.8526 160.492 90.4068C149.918 90.9609 140.897 82.8384 140.343 72.2645C139.789 61.6907 147.911 52.6697 158.485 52.1156C169.059 51.5614 178.08 59.684 178.634 70.2578Z" fill="#81D11A"/>
<path fill-rule="evenodd" clip-rule="evenodd" d="M290.785 293.237L290.451 286.872C289.707 272.679 289.336 265.582 293.514 260.942C297.692 256.301 304.789 255.929 318.982 255.185L324.458 254.898L324.475 255.221C324.527 256.219 324.181 257.197 323.512 257.94L292.773 292.079C292.244 292.667 291.547 293.069 290.785 293.237Z" fill="#EFF5EC"/>
<path fill-rule="evenodd" clip-rule="evenodd" d="M147.155 210.521C147.193 211.252 146.804 211.94 146.158 212.284L78.9769 248.004C77.1391 248.981 74.8571 248.284 73.88 246.446L57.7943 216.193C56.8171 214.355 57.5148 212.073 59.3525 211.096L142.192 167.05C143.409 166.402 144.886 167.238 144.959 168.615L147.155 210.521Z" fill="#FFFEFB"/>
<path fill-rule="evenodd" clip-rule="evenodd" d="M96.8656 191.15L146.78 211.532L146.874 211.613C146.798 211.736 146.708 211.85 146.605 211.953L93.4064 192.989L96.8656 191.15Z" fill="black" fill-opacity="0.25"/>
<path fill-rule="evenodd" clip-rule="evenodd" d="M144.866 166.853C144.828 166.121 144.37 165.479 143.691 165.204L73.1439 136.702C71.2141 135.922 69.0176 136.854 68.2379 138.784L55.4025 170.553C54.6228 172.482 55.5552 174.679 57.485 175.459L96.6312 191.275L125.375 202.888L146.893 211.582C147.078 211.271 147.173 210.908 147.156 210.532L147.155 210.521L145.036 170.097L144.866 166.853Z" fill="#FFFEFB"/>
<path d="M186.528 179.584C186.446 178.025 187.644 176.695 189.203 176.613L281.589 171.772C283.148 171.69 284.478 172.887 284.559 174.446L285.976 201.478C286.058 203.037 284.86 204.367 283.301 204.449L190.915 209.29C189.356 209.372 188.026 208.175 187.945 206.616L186.528 179.584Z" fill="#FFFEFB"/>
</svg>
